<?xml version="1.0" standalone="no"?>
<!DOCTYPE svg PUBLIC "-//W3C//DTD SVG 20010904//EN"
 "http://www.w3.org/TR/2001/REC-SVG-20010904/DTD/svg10.dtd">
<svg version="1.0" xmlns="http://www.w3.org/2000/svg"
 width="512.000000pt" height="512.000000pt" viewBox="0 0 512.000000 512.000000"
 preserveAspectRatio="xMidYMid meet">
<metadata>
Created by potrace 1.11, written by Peter Selinger 2001-2013
</metadata>
<g transform="translate(0.000000,512.000000) scale(0.100000,-0.100000)"
fill="#000000" stroke="none">
<path d="M3117 5007 c-53 -17 -98 -56 -145 -126 -64 -97 -100 -197 -148 -419
-79 -370 -98 -410 -295 -632 -36 -41 -142 -169 -234 -285 -352 -438 -466 -551
-579 -575 -70 -14 -128 -56 -155 -112 l-21 -44 0 -1072 c0 -877 2 -1079 13
-1105 24 -55 87 -104 153 -117 195 -39 284 -64 609 -170 660 -217 902 -258
1450 -247 323 6 408 21 550 91 239 119 365 336 366 634 l0 105 43 48 c121 135
185 392 142 574 -11 49 -11 51 27 112 93 150 120 331 77 521 l-23 100 35 49
c48 65 82 134 109 223 33 106 34 284 2 385 -56 178 -211 336 -393 403 l-75 27
-503 3 -503 3 6 22 c3 12 46 101 95 198 125 249 170 413 170 623 0 208 -29
357 -94 480 -70 134 -171 218 -316 264 -129 41 -299 59 -363 39z"/>
<path d="M125 2951 c-22 -10 -52 -31 -67 -47 -61 -65 -58 -3 -58 -1166 0
-1012 1 -1065 19 -1104 22 -48 82 -101 131 -114 49 -14 984 -13 1033 1 49 13
105 63 128 114 18 38 19 96 19 1103 0 1163 3 1101 -58 1166 -15 16 -45 37 -67
47 -37 17 -74 19 -540 19 -466 0 -503 -2 -540 -19z m563 -1637 c144 -60 175
-239 59 -341 -78 -68 -186 -68 -264 0 -70 61 -91 152 -53 235 47 103 156 149
258 106z"/>
</g>
</svg>
